<svg width="24" height="18" viewBox="0 0 24 18" fill="none" xmlns="http://www.w3.org/2000/svg">
<path d="M22.029 13.0017L12.76 7.43296V6.4851C12.76 5.40967 11.6078 4.94291 11.6078 4.94291C10.8621 4.57265 10.9287 3.7748 10.9287 3.7748C10.9287 2.8384 11.7528 2.53789 12.1198 2.53789C12.7365 2.53789 13.3415 2.88617 13.4053 3.68259C13.5057 4.93144 14.8954 4.61421 14.8954 3.61093C14.8954 2.66306 14.0459 1 12.109 1C10.0145 1 9.41328 3.08444 9.41328 3.74327C9.41328 4.24061 9.49025 4.69973 9.79155 5.22335C10.304 6.11388 11.3285 6.25387 11.3285 6.84342V7.43296L1.9657 13.0227C1.04209 13.5778 0.875014 14.7593 1.07541 15.4764C1.26972 16.1716 1.95491 17 3.18827 17H3.19108C3.19108 17 19.0896 17 20.6928 17C22.0731 17 22.7029 16.1945 22.8972 15.4994C23.0976 14.7823 23.0976 13.6724 22.029 13.0017ZM20.7149 15.4368H3.21595C2.64621 15.4592 2.29421 14.6471 2.8574 14.2887L11.9866 8.86241L21.0669 14.2649C21.6301 14.6709 21.325 15.4354 20.7149 15.4368Z" fill="black" stroke="black" stroke-width="0.5"/>
</svg>
