<svg width="173" height="28" viewBox="0 0 173 28" fill="none" xmlns="http://www.w3.org/2000/svg">
<path d="M58.0703 22V7.336L51.3743 18.808H50.5583L43.8623 7.336V22H42.6383V4.96H43.8623L50.9663 17.152L58.0703 4.96H59.2943V22H58.0703ZM75.1074 20.896V22H63.7554V4.96H74.8914V6.064H64.9794V12.76H73.6434V13.816H64.9794V20.896H75.1074ZM90.3548 6.064H84.1148V22H82.8908V6.064H76.6508V4.96H90.3548V6.064ZM96.6934 4.96H97.7494L104.949 22H103.653L101.277 16.384H93.1414L90.7654 22H89.4454L96.6934 4.96ZM100.941 15.376L97.2214 6.448L93.4294 15.376H100.941ZM106.913 22V19.96H107.969V22H106.913ZM118.172 22.12C116.988 22.12 115.908 21.88 114.932 21.4C113.956 20.904 113.116 20.248 112.412 19.432C111.708 18.616 111.164 17.696 110.78 16.672C110.396 15.632 110.204 14.568 110.204 13.48C110.204 12.344 110.404 11.264 110.804 10.24C111.204 9.2 111.764 8.28 112.484 7.48C113.22 6.664 114.068 6.024 115.028 5.56C116.004 5.08 117.06 4.84 118.196 4.84C119.38 4.84 120.46 5.088 121.436 5.584C122.412 6.08 123.252 6.744 123.956 7.576C124.66 8.408 125.204 9.336 125.588 10.36C125.972 11.384 126.164 12.424 126.164 13.48C126.164 14.632 125.956 15.728 125.54 16.768C125.14 17.792 124.58 18.712 123.86 19.528C123.14 20.328 122.292 20.96 121.316 21.424C120.356 21.888 119.308 22.12 118.172 22.12ZM111.428 13.48C111.428 14.456 111.588 15.392 111.908 16.288C112.244 17.184 112.716 17.992 113.324 18.712C113.932 19.416 114.644 19.976 115.46 20.392C116.292 20.792 117.204 20.992 118.196 20.992C119.22 20.992 120.14 20.776 120.956 20.344C121.788 19.912 122.5 19.336 123.092 18.616C123.684 17.896 124.132 17.096 124.436 16.216C124.756 15.32 124.916 14.408 124.916 13.48C124.916 12.504 124.748 11.568 124.412 10.672C124.092 9.776 123.628 8.976 123.02 8.272C122.412 7.568 121.692 7.008 120.86 6.592C120.044 6.176 119.156 5.968 118.196 5.968C117.172 5.968 116.244 6.184 115.412 6.616C114.58 7.048 113.868 7.624 113.276 8.344C112.684 9.064 112.228 9.872 111.908 10.768C111.588 11.648 111.428 12.552 111.428 13.48ZM144.883 22V7.336L138.187 18.808H137.371L130.675 7.336V22H129.451V4.96H130.675L137.779 17.152L144.883 4.96H146.107V22H144.883ZM151.792 7.24V22H150.568V4.96H151.576L163.456 19.96V4.96H164.68V22H163.48L151.792 7.24ZM169.13 22V4.96H170.354V22H169.13Z" fill="black"/>
<path d="M6.45934 7.45934C6.21402 10.8047 7.8516 14.2822 10.2846 16.7152C12.7176 19.1482 16.1951 20.7858 19.5405 20.5405C19.7858 17.1951 18.1482 13.7176 15.7152 11.2846C13.2822 8.85162 9.80472 7.21403 6.45934 7.45934Z" fill="url(#paint0_linear_16_1605)" stroke="black" stroke-width="1.35391" stroke-linecap="round" stroke-linejoin="round"/>
<path d="M1 9.99998C5.41827 5.58171 12.5817 5.58171 17 9.99998C21.4183 14.4183 21.4183 21.5817 17 26C18.6222 24.3778 19.3982 22.4814 19.5406 20.5406C19.7859 17.1952 18.1483 13.7177 15.7153 11.2847C13.2823 8.85169 9.8048 7.2141 6.45942 7.45941C4.51857 7.60173 2.62218 8.37781 1 9.99998Z" fill="black"/>
<path d="M25 18C20.5817 22.4183 13.4183 22.4183 9 18C4.58172 13.5817 4.58172 6.41827 9 2C7.37782 3.62218 6.60174 5.51857 6.45942 7.45941C6.2141 10.8048 7.85168 14.2822 10.2847 16.7153C12.7177 19.1483 16.1952 20.7859 19.5406 20.5406C21.4814 20.3982 23.3778 19.6222 25 18Z" fill="black"/>
<path d="M6.45942 7.45941C6.2141 10.8048 7.85168 14.2822 10.2847 16.7153C12.7177 19.1483 16.1952 20.7859 19.5406 20.5406M6.45942 7.45941C6.60174 5.51857 7.37782 3.62218 9 2C4.58172 6.41827 4.58172 13.5817 9 18C13.4183 22.4183 20.5817 22.4183 25 18C23.3778 19.6222 21.4814 20.3982 19.5406 20.5406M6.45942 7.45941C4.51857 7.60173 2.62218 8.37781 1 9.99998C5.41827 5.58171 12.5817 5.58171 17 9.99998C21.4183 14.4183 21.4183 21.5817 17 26C18.6222 24.3778 19.3982 22.4814 19.5406 20.5406M6.45942 7.45941C9.8048 7.2141 13.2823 8.85169 15.7153 11.2847C18.1483 13.7177 19.7859 17.1952 19.5406 20.5406" stroke="black" stroke-width="1.35391" stroke-linecap="round" stroke-linejoin="round"/>
<defs>
<linearGradient id="paint0_linear_16_1605" x1="12.9999" y1="7.43506" x2="12.9999" y2="20.571" gradientUnits="userSpaceOnUse">
<stop stop-color="#FFE1AB"/>
<stop offset="0.53125" stop-color="#AAFFFB"/>
<stop offset="0.989583" stop-color="#FFBFA9"/>
</linearGradient>
</defs>
</svg>
